<?xml version="1.0" standalone="no"?>
<!DOCTYPE svg PUBLIC "-//W3C//DTD SVG 20010904//EN"
 "http://www.w3.org/TR/2001/REC-SVG-20010904/DTD/svg10.dtd">
<svg version="1.0" xmlns="http://www.w3.org/2000/svg"
 width="1000.000000pt" height="648.000000pt" viewBox="0 0 1000.000000 648.000000"
 preserveAspectRatio="xMidYMid meet">
<metadata>
Created by potrace 1.16, written by Peter Selinger 2001-2019
</metadata>
<g transform="translate(0.000000,648.000000) scale(0.100000,-0.100000)"
fill="#666666" stroke="none">
<path d="M3860 6341 c-63 -10 -149 -30 -190 -44 -79 -27 -204 -82 -224 -98 -6
-5 -40 -28 -76 -51 -36 -23 -71 -50 -78 -60 -7 -10 -17 -18 -22 -18 -11 0 -50
-39 -116 -116 -289 -335 -352 -819 -161 -1234 40 -86 132 -230 147 -230 5 0
10 -5 10 -11 0 -13 126 -139 140 -139 5 0 10 -4 10 -9 0 -12 173 -122 250
-158 74 -35 196 -75 284 -93 83 -17 304 -15 411 3 109 19 318 94 359 129 6 5
33 23 60 41 89 58 82 51 205 171 44 44 81 83 81 88 0 4 9 16 20 26 12 11 29
34 39 53 10 19 31 59 48 89 47 84 88 195 114 305 32 137 32 331 1 458 -12 49
-22 95 -22 102 0 8 -11 38 -24 67 -13 29 -27 64 -31 78 -4 14 -16 37 -26 52
-11 14 -19 29 -19 34 0 4 -11 22 -25 40 -14 18 -25 36 -25 39 0 10 -114 146
-151 181 -38 35 -166 134 -173 134 -3 0 -25 14 -49 30 -25 17 -50 30 -55 30
-6 0 -26 9 -44 19 -51 30 -184 72 -278 87 -149 24 -264 25 -390 5z"/>
<path d="M4733 6342 c-22 -3 -33 -22 -14 -22 5 0 17 -7 25 -16 9 -9 22 -17 30
-18 7 -1 26 -12 42 -24 16 -13 53 -41 82 -63 28 -23 52 -45 52 -50 0 -5 6 -9
14 -9 7 0 25 -15 39 -32 13 -18 35 -44 48 -58 14 -14 38 -43 54 -65 16 -22 31
-42 34 -45 22 -19 130 -243 150 -310 44 -146 54 -209 58 -386 5 -159 3 -192
-17 -285 -12 -57 -25 -120 -29 -139 -26 -120 -151 -353 -246 -455 -20 -22 -43
-50 -52 -62 -8 -13 -21 -23 -28 -23 -7 0 -20 -11 -29 -25 -9 -14 -23 -25 -31
-25 -8 0 -15 -4 -15 -10 0 -8 -80 -65 -135 -95 -11 -6 -31 -18 -45 -25 -14 -8
-30 -15 -36 -16 -6 -1 -29 -13 -51 -27 -23 -14 -43 -23 -46 -21 -3 3 -27 -7
-53 -22 -27 -16 -53 -29 -60 -30 -6 -1 -28 -13 -50 -26 -21 -14 -42 -25 -45
-24 -4 1 -26 -10 -50 -24 -24 -13 -49 -25 -56 -26 -6 -1 -27 -13 -45 -27 -18
-14 -36 -25 -40 -24 -3 1 -25 -9 -47 -23 -102 -62 -177 -110 -188 -120 -7 -6
-15 -9 -17 -8 -3 2 -16 -6 -28 -17 -13 -10 -50 -38 -84 -60 -33 -22 -67 -46
-75 -53 -8 -7 -52 -42 -99 -80 -158 -125 -307 -270 -401 -392 -32 -41 -64 -82
-72 -91 -7 -9 -31 -45 -52 -80 -22 -35 -44 -71 -51 -79 -7 -8 -31 -52 -54 -97
-28 -55 -49 -84 -63 -88 -48 -13 -496 -158 -557 -180 -36 -13 -80 -26 -98 -30
-18 -4 -46 -14 -63 -22 -17 -9 -45 -19 -63 -23 -17 -5 -60 -18 -96 -30 -36
-12 -85 -29 -110 -37 -25 -9 -74 -24 -110 -34 -60 -16 -87 -25 -210 -66 -25
-9 -67 -21 -95 -28 -27 -7 -68 -20 -90 -29 -22 -10 -58 -21 -80 -26 -22 -5
-65 -17 -95 -28 -53 -18 -107 -36 -305 -97 -49 -15 -121 -39 -158 -52 -38 -12
-76 -23 -85 -23 -9 0 -46 -11 -82 -24 -99 -36 -221 -74 -260 -82 -19 -3 -40
-10 -46 -15 -5 -4 -35 -15 -65 -23 -30 -8 -81 -24 -114 -35 -33 -11 -69 -21
-80 -21 -19 -1 -63 -27 -54 -32 9 -6 137 -50 179 -62 25 -8 68 -21 95 -31 116
-41 183 -63 230 -78 51 -16 66 -21 170 -58 33 -11 76 -24 95 -29 19 -4 64 -18
100 -30 36 -12 94 -32 130 -45 36 -12 88 -30 115 -39 28 -10 77 -26 110 -36
92 -28 303 -100 370 -126 33 -13 68 -24 77 -24 10 0 46 -11 80 -24 91 -34 154
-55 228 -76 36 -11 79 -26 95 -34 17 -9 37 -16 45 -16 8 0 40 -9 70 -21 30
-11 71 -25 90 -29 19 -4 64 -18 100 -30 167 -58 308 -104 460 -150 58 -18 119
-38 135 -45 17 -7 50 -18 75 -25 25 -6 68 -19 95 -29 28 -10 91 -30 140 -45
50 -15 119 -38 155 -50 65 -23 187 -62 270 -87 25 -7 56 -19 70 -26 14 -7 32
-13 40 -13 14 0 75 -19 240 -75 36 -12 106 -34 155 -50 50 -15 119 -37 155
-50 36 -12 83 -27 105 -33 42 -10 155 -48 190 -62 11 -5 38 -14 60 -21 22 -6
65 -20 95 -31 116 -40 156 -48 191 -36 56 19 161 54 214 73 28 10 70 24 95 31
25 7 74 23 110 35 36 13 94 32 130 45 36 12 94 32 130 44 36 12 84 26 108 31
24 5 49 12 55 16 18 12 80 33 97 33 8 0 26 6 40 13 14 7 45 19 70 26 50 15
125 39 155 50 64 24 125 44 160 53 22 6 54 17 70 23 17 7 48 18 70 25 22 7 69
22 105 35 36 12 106 34 155 50 50 15 106 33 125 41 19 7 53 18 75 25 22 6 56
18 75 25 19 7 53 18 75 25 22 6 61 20 86 30 25 10 63 23 85 28 63 16 231 74
266 92 10 5 26 9 37 9 10 0 40 9 65 21 26 11 68 26 94 34 48 13 101 32 207 70
104 38 158 57 220 75 33 10 132 44 220 75 88 31 178 62 200 69 22 7 58 20 79
29 22 10 51 20 65 23 14 3 53 16 86 29 90 34 155 56 205 71 58 16 161 52 225
77 28 11 64 23 80 27 34 9 129 42 222 77 34 12 69 23 78 23 9 0 37 9 62 21 25
12 67 27 92 34 74 21 151 50 151 56 0 4 -28 14 -62 23 -35 10 -90 26 -123 36
-33 11 -100 31 -150 46 -49 14 -121 37 -160 50 -38 13 -82 25 -97 28 -15 2
-53 13 -85 24 -58 19 -149 47 -318 96 -195 58 -262 78 -320 98 -33 11 -71 22
-85 25 -14 2 -59 15 -100 28 -92 28 -228 70 -335 102 -44 14 -107 34 -140 45
-33 11 -71 23 -85 25 -14 3 -54 15 -90 28 -36 13 -93 31 -128 41 -35 10 -65
21 -68 26 -3 4 -16 8 -29 8 -13 0 -47 9 -75 20 -28 11 -68 24 -88 29 -20 5
-64 18 -97 29 -59 20 -201 63 -260 80 l-30 9 -3 274 c-1 151 -6 753 -11 1339
l-8 1065 -27 100 c-41 157 -89 271 -162 379 -21 32 -44 67 -50 78 -6 11 -21
26 -33 34 -11 8 -21 19 -21 24 0 5 -28 35 -61 67 -34 32 -74 71 -90 88 -16 16
-29 25 -29 20 0 -5 -12 2 -27 16 -29 26 -114 83 -123 82 -3 0 -23 11 -44 25
-22 13 -44 25 -50 26 -6 1 -33 12 -61 25 -114 51 -139 52 -850 49 -363 -1
-670 -4 -682 -6z m2394 -3786 c21 -7 88 -28 148 -46 61 -18 144 -43 185 -56
41 -13 93 -27 115 -32 22 -5 146 -42 275 -82 254 -78 830 -251 1000 -301 58
-17 161 -48 230 -69 69 -21 202 -61 295 -90 94 -28 223 -67 289 -87 l118 -37
-93 -32 c-52 -18 -292 -100 -534 -182 -242 -83 -708 -242 -1035 -355 -544
-187 -1638 -553 -2220 -742 -129 -42 -382 -125 -561 -185 l-327 -108 -433 139
c-239 77 -528 171 -644 209 -115 38 -325 105 -465 150 -140 44 -273 87 -295
95 -22 7 -161 52 -310 100 -320 103 -621 201 -1520 499 -369 122 -766 253
-882 292 -117 38 -213 71 -213 74 0 3 44 19 98 36 233 74 1858 580 1962 611
63 19 147 46 185 58 66 22 365 116 413 130 27 8 27 1 3 -61 -61 -153 -109
-391 -121 -598 -4 -77 -6 -145 -3 -152 4 -10 415 -12 2131 -8 1170 3 2133 8
2140 10 11 3 13 79 10 419 -2 324 0 415 9 415 7 0 30 -6 50 -14z"/>
<path d="M5315 1541 c-68 -31 -89 -62 -93 -140 -4 -61 -2 -70 22 -98 28 -33
66 -48 195 -79 105 -24 139 -67 90 -113 -53 -49 -171 -33 -199 26 -14 31 -18
33 -69 33 l-54 0 6 -37 c8 -49 34 -83 88 -113 37 -21 57 -25 129 -25 144 0
220 52 227 159 3 38 -1 59 -16 83 -30 47 -57 61 -182 92 -137 35 -163 59 -121
111 22 27 98 38 141 20 17 -7 36 -25 43 -41 12 -27 17 -29 65 -29 58 0 62 6
42 57 -15 40 -48 73 -94 94 -54 25 -166 25 -220 0z"/>
<path d="M4850 1273 l0 -273 54 0 c30 0 58 5 62 11 3 6 3 130 -1 275 l-7 265
-54 -3 -54 -3 0 -272z"/>
<path d="M5967 1283 c-104 -294 -103 -281 -26 -282 42 -1 52 9 69 66 7 23 18
44 24 46 6 2 53 4 105 3 l93 -1 17 -54 16 -55 60 3 c33 1 61 3 61 4 1 1 -29
88 -66 192 -38 105 -80 225 -95 268 l-28 77 -67 0 -67 0 -96 -267z m198 37
c15 -47 30 -91 33 -97 3 -10 -14 -13 -68 -13 -53 0 -71 3 -68 13 3 6 18 54 33
105 16 51 32 89 35 85 4 -4 20 -46 35 -93z"/>
<path d="M6620 1280 l0 -270 55 0 55 0 2 189 3 189 110 -189 110 -189 57 0 58
0 0 270 0 270 -50 0 -50 0 0 -186 c0 -108 -4 -183 -9 -180 -5 4 -49 75 -97
159 -128 222 -115 207 -185 207 l-59 0 0 -270z"/>
<path d="M3525 1528 c-3 -7 -3 -60 -1 -118 2 -58 5 -176 5 -262 l1 -158 55 0
55 0 0 111 0 111 85 -3 c109 -5 117 -12 124 -118 4 -44 11 -85 16 -90 6 -6 34
-8 68 -4 48 5 55 8 45 20 -6 8 -15 55 -18 105 -6 84 -9 93 -35 114 l-28 22 23
12 c34 18 63 93 55 141 -9 52 -53 102 -103 117 -55 17 -341 16 -347 0z m317
-105 c18 -16 24 -68 10 -89 -16 -24 -54 -34 -131 -34 l-81 0 0 70 0 70 92 0
c71 0 95 -4 110 -17z"/>
<path d="M4180 1495 l0 -44 83 -3 82 -3 3 -222 2 -223 55 0 55 0 2 223 3 222
83 3 82 3 0 44 0 45 -225 0 -225 0 0 -45z"/>
<path d="M2955 1518 c-85 -238 -185 -523 -185 -525 0 -2 26 -3 59 -3 l58 0 19
53 19 52 101 3 101 3 20 -53 20 -53 63 -3 c34 -2 60 1 59 6 -2 5 -47 127 -99
270 l-94 262 -69 0 c-45 0 -69 -4 -72 -12z"/>
</g>
</svg>
