<?xml version="1.0" standalone="no"?>
<!DOCTYPE svg PUBLIC "-//W3C//DTD SVG 20010904//EN"
 "http://www.w3.org/TR/2001/REC-SVG-20010904/DTD/svg10.dtd">
<svg version="1.0" xmlns="http://www.w3.org/2000/svg"
 width="1428.000000pt" height="1167.000000pt" viewBox="0 0 1428.000000 1167.000000"
 preserveAspectRatio="xMidYMid meet">
<metadata>
Created by potrace 1.16, written by Peter Selinger 2001-2019
</metadata>
<g transform="translate(0.000000,1167.000000) scale(0.100000,-0.100000)"
fill="#666666" stroke="none">
<path d="M7405 11634 c-434 -7 -817 -14 -850 -16 l-59 -3 84 -49 c849 -487
1186 -1666 741 -2591 -169 -352 -397 -612 -736 -837 -158 -105 -385 -215 -565
-274 -745 -243 -1309 -709 -1672 -1384 l-68 -125 -2125 -774 c-1169 -426
-2125 -777 -2125 -781 0 -14 7035 -3295 7065 -3294 18 0 1406 631 3590 1633
1958 898 3562 1635 3564 1637 2 2 2 6 -1 9 -5 5 -4186 1585 -4194 1585 -2 0
-4 433 -4 963 0 995 -14 2225 -30 2636 -10 263 -24 351 -91 554 -48 146 -118
293 -200 417 -85 128 -281 324 -409 409 -292 193 -676 305 -1029 300 -53 -1
-451 -8 -886 -15z m4690 -6084 c1111 -419 2024 -765 2029 -768 5 -3 -6 -13
-25 -22 -19 -10 -1601 -736 -3517 -1614 -2103 -965 -3490 -1595 -3500 -1592
-59 19 -6920 3233 -6919 3241 1 8 4086 1505 4094 1500 1 0 -17 -49 -42 -107
-81 -198 -165 -487 -189 -655 l-6 -43 157 0 c87 0 1335 11 2773 25 1438 14
2722 25 2853 25 l237 0 0 391 c0 368 1 391 18 386 9 -2 926 -347 2037 -767z"/>
<path d="M7624 5210 c-56 -11 -133 -51 -166 -87 -59 -62 -82 -158 -58 -244 6
-20 28 -57 51 -83 39 -44 81 -68 236 -136 68 -30 88 -52 88 -100 0 -50 -24
-75 -85 -90 -57 -14 -121 -6 -207 25 l-63 22 -10 -38 c-5 -22 -15 -58 -21 -81
-14 -53 -4 -61 99 -84 104 -23 257 -16 330 16 63 27 133 101 150 158 33 110
-2 225 -87 287 -25 19 -86 50 -134 71 -92 38 -142 72 -152 103 -9 29 11 69 44
86 41 21 143 19 209 -4 37 -13 55 -15 57 -7 2 6 13 41 24 79 l19 67 -27 14
c-60 32 -205 44 -297 26z"/>
<path d="M5060 5204 c-19 -3 -45 -7 -57 -9 l-23 -5 0 -440 0 -440 100 0 100 0
0 175 0 175 54 0 c43 0 60 -5 84 -25 35 -29 44 -51 76 -175 41 -162 29 -150
146 -150 55 0 100 2 100 4 0 2 -18 69 -39 148 -44 164 -67 216 -112 250 l-31
25 32 13 c40 17 94 80 108 129 29 94 -2 214 -66 260 -79 55 -117 65 -282 67
-85 1 -171 0 -190 -2z m280 -160 c47 -19 70 -55 70 -112 0 -77 -63 -122 -170
-122 l-60 0 0 118 c0 65 3 122 7 125 12 13 113 7 153 -9z"/>
<path d="M4002 4762 c-73 -241 -132 -442 -132 -445 0 -4 46 -7 103 -7 l103 0
29 115 30 115 126 0 126 0 33 -115 33 -115 109 0 c84 0 109 3 105 13 -5 15
-246 799 -259 845 l-9 32 -133 0 -133 0 -131 -438z m277 208 c7 -30 25 -101
41 -156 17 -56 30 -107 30 -113 0 -7 -31 -11 -90 -11 -49 0 -90 4 -90 9 0 5
15 65 34 134 19 68 38 146 42 172 8 55 16 46 33 -35z"/>
<path d="M5870 5115 l0 -85 120 0 120 0 0 -360 0 -360 100 0 100 0 0 360 0
360 120 0 120 0 0 85 0 85 -340 0 -340 0 0 -85z"/>
<path d="M6850 4755 l0 -445 100 0 100 0 0 445 0 445 -100 0 -100 0 0 -445z"/>
<path d="M8382 4762 c-73 -241 -132 -441 -132 -445 0 -4 46 -7 103 -7 l103 0
29 115 30 115 126 0 126 0 33 -115 33 -115 109 0 c109 0 109 0 102 23 -21 67
-264 861 -264 864 0 1 -60 3 -133 3 l-133 0 -132 -438z m303 118 c20 -80 40
-155 42 -167 5 -23 4 -23 -87 -23 -91 0 -92 0 -87 23 33 141 83 324 88 319 3
-4 23 -72 44 -152z"/>
<path d="M9360 4755 l0 -445 90 0 90 0 0 321 0 321 94 -183 c51 -101 127 -245
167 -319 l74 -135 108 -3 107 -3 0 446 0 445 -91 0 -90 0 3 -304 3 -305 -62
129 c-33 71 -105 208 -158 305 l-97 175 -119 0 -119 0 0 -445z"/>
<path d="M5278 11549 c-661 -51 -1237 -489 -1471 -1119 -164 -442 -132 -952
88 -1379 357 -694 1137 -1056 1905 -885 650 145 1167 671 1300 1324 93 456 2
919 -257 1310 -106 160 -303 357 -463 463 -191 126 -423 223 -630 261 -76 15
-311 37 -350 34 -8 0 -63 -5 -122 -9z"/>
<path d="M8239 1167 l-23 -122 -71 3 c-135 7 -253 -66 -317 -196 -30 -61 -33
-74 -33 -162 0 -114 20 -162 81 -197 70 -41 176 -22 240 42 l27 27 -7 -41 -6
-41 64 0 65 0 5 33 c3 17 8 55 11 82 4 28 33 190 66 361 32 171 59 316 59 323
0 7 -24 11 -69 11 l-69 0 -23 -123z m-60 -236 c12 -8 11 -23 -4 -102 -22 -119
-42 -166 -89 -207 -30 -26 -45 -32 -73 -30 -53 4 -78 43 -77 116 3 89 48 170
119 213 31 20 100 25 124 10z"/>
<path d="M5324 1193 c-27 -42 -50 -81 -52 -85 -2 -4 23 -8 55 -7 l58 0 68 79
c37 43 67 81 67 84 0 3 -33 6 -73 6 l-74 0 -49 -77z"/>
<path d="M6084 1258 c-25 -12 -44 -48 -44 -83 0 -36 34 -65 74 -65 45 0 75 27
82 72 11 64 -51 106 -112 76z"/>
<path d="M8491 1158 c-7 -62 -15 -130 -18 -151 l-6 -38 49 3 49 3 37 140 c21
77 38 143 38 148 0 4 -31 7 -68 7 l-69 0 -12 -112z"/>
<path d="M4280 1247 c0 -3 -43 -171 -95 -375 -52 -204 -95 -375 -95 -381 0 -7
25 -11 65 -11 62 0 65 1 71 28 3 15 20 81 36 147 17 66 45 185 63 265 38 168
33 179 65 -150 30 -307 22 -280 85 -280 30 0 57 5 63 13 5 6 71 133 146 282
75 148 136 267 136 265 0 -3 -18 -129 -40 -280 -22 -151 -40 -278 -40 -282 0
-5 32 -8 70 -8 43 0 70 4 70 11 0 13 88 683 95 727 l6 32 -95 0 -94 0 -104
-202 c-57 -112 -117 -234 -134 -272 l-29 -68 -7 48 c-4 27 -17 148 -30 269
l-23 220 -93 3 c-50 1 -92 1 -92 -1z"/>
<path d="M8690 870 c-104 -209 -190 -382 -190 -385 0 -3 33 -5 74 -5 l75 0 52
110 52 110 113 0 112 0 6 -27 c3 -16 8 -65 12 -110 l6 -83 75 0 76 0 -5 33
c-3 17 -25 191 -49 385 l-44 352 -87 0 -88 0 -190 -380z m266 97 c7 -67 13
-130 14 -139 0 -16 -11 -18 -85 -18 l-85 0 43 88 c24 48 54 113 67 144 13 32
26 56 29 53 2 -3 10 -60 17 -128z"/>
<path d="M5743 1159 l-61 -19 -7 -50 -7 -50 -38 0 c-37 0 -39 -2 -45 -37 -4
-21 -9 -46 -12 -55 -3 -15 2 -18 31 -18 24 0 36 -5 36 -14 0 -7 -11 -68 -25
-136 -14 -68 -25 -149 -25 -182 0 -52 4 -63 28 -88 33 -33 83 -45 146 -36 48
8 56 19 56 88 0 29 -3 36 -15 32 -25 -10 -63 5 -70 27 -4 12 6 86 21 165 l28
144 62 0 62 0 6 38 c4 20 9 45 12 55 5 15 -2 17 -57 17 l-62 0 6 38 c4 20 9
52 13 70 8 38 5 38 -83 11z"/>
<path d="M9870 1163 c-70 -19 -76 -24 -85 -78 -6 -44 -7 -45 -45 -45 l-38 0
-9 -52 -8 -53 32 -3 c40 -4 40 0 8 -162 -34 -171 -33 -223 3 -260 32 -32 91
-45 153 -35 44 8 45 9 52 77 4 46 4 48 -19 42 -30 -8 -61 3 -68 23 -4 9 6 83
21 164 l28 149 62 0 61 0 11 50 c6 28 11 53 11 55 0 3 -28 5 -61 5 l-61 0 6
33 c15 75 18 107 10 106 -5 0 -34 -8 -64 -16z"/>
<path d="M5223 1034 c-63 -23 -128 -86 -165 -162 -28 -56 -34 -80 -37 -150 -5
-133 33 -203 128 -237 68 -24 180 -17 264 16 29 12 33 29 21 88 -5 25 -10 30
-23 25 -46 -20 -127 -35 -158 -29 -43 8 -90 51 -98 91 l-6 31 101 6 c85 4 111
10 158 34 71 35 94 67 99 135 6 70 -19 115 -77 146 -52 26 -141 29 -207 6z
m141 -113 c22 -24 14 -55 -19 -77 -20 -13 -164 -37 -174 -28 -10 8 40 82 69
102 42 28 100 29 124 3z"/>
<path d="M6427 1036 c-172 -62 -270 -298 -189 -457 40 -80 88 -104 207 -104
61 0 107 6 141 18 l52 18 -5 42 c-8 68 -7 68 -50 53 -101 -35 -174 -28 -213
21 -11 14 -20 39 -20 54 l0 29 68 0 c81 0 175 23 219 53 45 31 63 67 63 130 0
65 -28 113 -80 139 -42 22 -138 23 -193 4z m127 -112 c23 -23 20 -50 -10 -73
-26 -20 -44 -25 -136 -35 l-47 -5 10 29 c6 16 28 45 50 65 31 27 47 35 78 35
23 0 46 -7 55 -16z"/>
<path d="M7035 1035 c-16 -8 -44 -31 -61 -50 l-32 -36 5 46 6 45 -62 0 c-69 0
-64 6 -76 -105 -4 -33 -22 -140 -41 -238 -19 -99 -34 -188 -34 -198 0 -17 8
-19 68 -19 l69 0 23 127 c30 167 44 207 95 259 35 38 47 44 81 44 l40 0 12 58
c7 32 12 64 12 70 0 17 -69 15 -105 -3z"/>
<path d="M7305 1038 c-44 -15 -93 -55 -110 -88 -21 -42 -19 -118 5 -158 11
-17 44 -48 74 -67 63 -40 86 -68 79 -96 -13 -47 -89 -63 -160 -34 -20 9 -42
14 -48 11 -7 -2 -18 -25 -25 -51 -15 -55 -12 -58 63 -75 176 -38 317 41 317
177 0 54 -30 102 -86 140 -89 59 -94 64 -94 87 0 40 32 58 92 54 29 -2 61 -8
70 -12 18 -8 33 16 45 75 4 23 0 28 -28 38 -39 14 -153 13 -194 -1z"/>
<path d="M9535 1036 c-17 -7 -45 -30 -63 -50 l-32 -36 7 45 6 46 -64 -3 -63
-3 -12 -95 c-11 -87 -68 -400 -80 -443 -5 -16 1 -18 67 -15 l73 3 27 136 c31
160 52 212 103 257 28 24 46 32 75 32 37 0 39 2 44 38 4 20 9 52 13 70 6 32 6
32 -32 32 -22 -1 -53 -7 -69 -14z"/>
<path d="M6011 988 c-40 -205 -91 -477 -91 -491 0 -14 11 -17 68 -17 l68 0 48
253 c26 138 50 264 53 280 l6 27 -71 0 -71 0 -10 -52z"/>
</g>
</svg>
