<svg id="Calque_1" data-name="Calque 1" xmlns="http://www.w3.org/2000/svg" viewBox="0 0 377.58 502.47"><defs><style>.cls-1{fill:#3961ab;}.cls-2{fill:#d53c3e;}</style></defs><title>Logo BW Final BIG 1</title><path class="cls-1" d="M88.23,301.77H17.33V10.8h54.2q58.54,0,88.24,20.19T189.48,87.7q0,41.6-37.29,61.07,54.19,19.08,54.2,72,0,37.33-29.38,59.15T88.23,301.77Zm0-12.38a215.18,215.18,0,0,0,38.16-3.14,137.42,137.42,0,0,0,33.17-10.45,56.4,56.4,0,0,0,24.71-21.41q8.89-14.1,8.89-33.58,0-44.44-45.74-60.27l-26.67-9.13L145.68,138q30.57-15.83,30.57-50.32,0-64.32-104.72-64.32h-41v266Z"/><path class="cls-2" d="M209.43,236.05c.24-1.66.43-3.42.56-5.3.15-2.14.19-4.16.15-6h1.77l151.76,0L260.06,488l-52.7-133.67L155.06,488,83.32,305.35l6.56,0c2.12,0,4.26,0,6.36,0Q125.66,380.19,155.06,455l52.3-133.68L260.06,455l86.18-218.94Z"/></svg>